<svg width="24" height="13" viewBox="0 0 24 13" fill="none" xmlns="http://www.w3.org/2000/svg">
<path d="M20.6554 8.26604C21.4515 9.01003 22.2918 9.70995 23.0058 10.529C23.3212 10.8929 23.6198 11.2685 23.8483 11.6908C24.172 12.2912 23.8788 12.952 23.3164 12.9878L19.82 12.9863C18.9182 13.0579 18.1988 12.7104 17.5939 12.1203C17.1098 11.6483 16.6615 11.146 16.1961 10.6581C16.0052 10.4587 15.8055 10.2711 15.5669 10.1228C15.0896 9.82625 14.6753 9.91702 14.4025 10.3935C14.1247 10.8782 14.0617 11.4148 14.0344 11.9549C13.997 12.7429 13.7481 12.9501 12.9211 12.9862C11.1537 13.066 9.47629 12.81 7.91802 11.9566C6.54421 11.2043 5.47893 10.1422 4.55165 8.93977C2.74635 6.59847 1.36377 4.0257 0.12121 1.38087C-0.158493 0.784995 0.0460693 0.465137 0.732976 0.453786C1.87358 0.432563 3.01405 0.434089 4.15602 0.45226C4.61962 0.458766 4.92651 0.713252 5.10552 1.13245C5.72263 2.58484 6.47774 3.96665 7.42555 5.24747C7.67798 5.58846 7.93537 5.9295 8.30184 6.16949C8.7073 6.43524 9.01602 6.34717 9.20676 5.91483C9.32779 5.64069 9.3808 5.34542 9.40808 5.05185C9.49846 4.04176 9.51037 3.03337 9.35188 2.02683C9.25457 1.39864 8.88491 0.991967 8.23002 0.873114C7.89585 0.812498 7.94558 0.693466 8.1074 0.510902C8.38841 0.196024 8.65274 0 9.17966 0H13.1311C13.7532 0.117507 13.8913 0.385005 13.9765 0.984115L13.9799 5.18533C13.9731 5.41725 14.1009 6.10556 14.5374 6.25905C14.8867 6.36834 15.1169 6.10085 15.3266 5.88885C16.2726 4.92775 16.9479 3.7919 17.5511 2.61575C17.8188 2.09857 18.049 1.56151 18.2721 1.02485C18.4374 0.626658 18.6967 0.430724 19.1653 0.439383L22.9684 0.442614C23.0812 0.442614 23.1953 0.444184 23.3045 0.462086C23.9453 0.566626 24.121 0.83049 23.923 1.42947C23.6112 2.36921 23.0044 3.15236 22.4111 3.93911C21.7768 4.77906 21.0985 5.5903 20.4696 6.43524C19.8917 7.20695 19.9376 7.59586 20.6554 8.26604Z" fill="#B562F5"/>
</svg>
