<svg width="24" height="24" viewBox="0 0 24 24" fill="none" xmlns="http://www.w3.org/2000/svg">
<path d="M0 24L1.65516 18C0.579328 16.1379 0 14.069 0 11.9172C0 5.37933 5.37933 0 11.9586 0C18.5379 0 24 5.37933 24 11.9172C24 18.4551 18.5379 24 11.9586 24C9.88964 24 7.90345 23.3379 6.12412 22.3448L0 24Z" fill="#EDEDED"/>
<path d="M6.45528 20.1932L6.8277 20.4001C8.35873 21.3518 10.1381 21.9312 12.0001 21.9312C17.4208 21.9312 21.9312 17.4208 21.9312 11.9173C21.9312 6.41389 17.4208 2.06909 11.9587 2.06909C6.49667 2.06909 2.06909 6.45528 2.06909 11.9173C2.06909 13.8208 2.60703 15.6829 3.60012 17.2553L3.84842 17.6277L2.89672 21.1036L6.45528 20.1932Z" fill="#B562F5"/>
<path d="M8.77235 6.37245L7.98616 6.33105C7.73787 6.33105 7.48962 6.41384 7.3241 6.57935C6.95168 6.91038 6.33101 7.53106 6.16549 8.35868C5.87585 9.60007 6.33101 11.0897 7.40688 12.5794C8.48276 14.069 10.5517 16.469 14.1931 17.5035C15.3517 17.8345 16.262 17.6276 17.0069 17.1725C17.5862 16.8 17.9586 16.2208 18.0828 15.6L18.2069 15.0207C18.2483 14.8552 18.1655 14.6483 18 14.5656L15.3931 13.3656C15.2276 13.2828 15.0206 13.3242 14.8965 13.4897L13.862 14.8138C13.7793 14.8966 13.6551 14.9379 13.531 14.8966C12.8276 14.6483 10.4689 13.6552 9.18616 11.1725C9.14477 11.0483 9.14477 10.9242 9.22755 10.8414L10.2206 9.7242C10.3034 9.60008 10.3448 9.43456 10.3034 9.31039L9.10343 6.62074C9.06199 6.49657 8.93787 6.37245 8.77235 6.37245Z" fill="#FEFEFE"/>
</svg>
